<svg>
  
  <!-- Meralit=Logo -->
  <symbol id="meralit-logo" xmlns="http://www.w3.org/2000/svg" width="182" height="50" viewBox="0 0 182 50" fill="none">
    <g clip-path="url(#clip0_103_2397)">
      <path d="M12.8501 41.6973C12.3871 41.6973 11.9942 41.6 11.6713 41.405C11.3483 41.2104 11.1024 40.9397 10.9332 40.593C10.7642 40.2467 10.6797 39.8457 10.6797 39.3905C10.6797 38.9353 10.7642 38.5343 10.9332 38.1878C11.1024 37.8413 11.3483 37.5708 11.6713 37.3759C11.9942 37.1809 12.3871 37.0837 12.8501 37.0837C13.3883 37.0837 13.8314 37.214 14.179 37.4741C14.5268 37.7346 14.7662 38.0851 14.8977 38.5262L14.3131 38.6737C14.2184 38.3436 14.0489 38.0832 13.8045 37.8926C13.5601 37.7018 13.2419 37.6065 12.8501 37.6065C12.5034 37.6065 12.2148 37.6813 11.9846 37.831C11.7542 37.9807 11.5808 38.1898 11.4645 38.4585C11.3483 38.7271 11.289 39.0378 11.2869 39.3905C11.2846 39.7432 11.3418 40.0533 11.458 40.3209C11.5743 40.5883 11.7488 40.7977 11.9813 40.9485C12.2138 41.099 12.5034 41.1744 12.8501 41.1744C13.2419 41.1744 13.5601 41.0788 13.8045 40.8869C14.0489 40.6952 14.2184 40.4353 14.3131 40.1072L14.8977 40.2547C14.7662 40.6957 14.5268 41.0462 14.179 41.3067C13.8314 41.5671 13.3883 41.6973 12.8501 41.6973Z" fill="white"/>
      <path d="M20.0356 41.605V37.6957H18.4497V37.1759H22.1963V37.6957H20.6105V41.605H20.0356Z" fill="white"/>
      <path d="M26.5172 39.4487H27.7607C27.8015 39.4487 27.8482 39.4468 27.9013 39.4427C27.9537 39.4388 28.004 39.4316 28.0512 39.4213C28.1998 39.3882 28.3205 39.3285 28.4131 39.2413C28.5056 39.154 28.5741 39.0516 28.6183 38.9335C28.6622 38.8159 28.6846 38.6952 28.6846 38.5723C28.6846 38.4491 28.6622 38.329 28.6183 38.2108C28.5741 38.0931 28.5056 37.9904 28.4131 37.9034C28.3205 37.8161 28.1998 37.7561 28.0512 37.7234C28.004 37.7131 27.9537 37.7059 27.9013 37.7018C27.8482 37.6976 27.8015 37.6957 27.7607 37.6957H26.5172V39.4487ZM25.9424 41.605V37.1759H27.78C27.8253 37.1759 27.8789 37.1772 27.9416 37.1806C28.004 37.1834 28.0642 37.1903 28.1225 37.2004C28.3741 37.2375 28.586 37.3197 28.7569 37.4479C28.9282 37.5764 29.0569 37.7372 29.143 37.931C29.2292 38.1249 29.272 38.3384 29.272 38.5723C29.272 38.8082 29.2284 39.0228 29.1414 39.2167C29.0541 39.4107 28.9251 39.5707 28.7539 39.6982C28.5826 39.8251 28.3722 39.9071 28.1225 39.9439C28.0642 39.9522 28.004 39.9586 27.9416 39.9627C27.8789 39.9666 27.8253 39.9688 27.78 39.9688H26.5172V41.605H25.9424Z" fill="white"/>
      <path d="M35.06 41.1744C35.4066 41.1766 35.6953 41.1024 35.9256 40.9515C36.156 40.8007 36.3294 40.5911 36.4457 40.3223C36.562 40.0539 36.62 39.7432 36.62 39.3905C36.62 39.0378 36.562 38.7276 36.4457 38.4599C36.3294 38.1926 36.156 37.9838 35.9256 37.8341C35.6953 37.6844 35.4066 37.6087 35.06 37.6065C34.7134 37.6046 34.4256 37.6783 34.1961 37.8277C33.9668 37.9777 33.7942 38.1873 33.6776 38.4569C33.5614 38.7267 33.5023 39.0378 33.5 39.3905C33.4981 39.7432 33.5553 40.0528 33.6713 40.3193C33.7876 40.5858 33.9616 40.7943 34.1927 40.9452C34.4245 41.096 34.7134 41.1725 35.06 41.1744ZM35.06 41.6973C34.5971 41.6973 34.2043 41.6 33.8812 41.405C33.5583 41.2104 33.3125 40.9397 33.1432 40.593C32.9742 40.2467 32.8896 39.8457 32.8896 39.3905C32.8896 38.9353 32.9742 38.5343 33.1432 38.1878C33.3125 37.8413 33.5583 37.5708 33.8812 37.3759C34.2043 37.1809 34.5971 37.0837 35.06 37.0837C35.5251 37.0837 35.919 37.1809 36.2421 37.3759C36.565 37.5708 36.8105 37.8413 36.9785 38.1878C37.1464 38.5343 37.2304 38.9353 37.2304 39.3905C37.2304 39.8457 37.1464 40.2467 36.9785 40.593C36.8105 40.9397 36.565 41.2104 36.2421 41.405C35.919 41.6 35.5251 41.6973 35.06 41.6973Z" fill="white"/>
      <path d="M44.6935 41.605H44.1122V38.1417L41.6869 41.605H41.1055V37.1759H41.6869V40.6361L44.1122 37.1759H44.6935V41.605Z" fill="white"/>
      <path d="M50.0256 41.605V37.6957H48.4399V37.1759H52.1866V37.6957H50.6009V41.605H50.0256Z" fill="white"/>
      <path d="M55.9331 41.605V37.1759H58.8718V37.6957H56.5079V39.0827H58.4843V39.6026H56.5079V41.0852H58.8718V41.605H55.9331Z" fill="white"/>
      <path d="M62.5532 41.605V41.1282C62.6676 41.1385 62.7615 41.1332 62.836 41.113C62.9103 41.0923 62.9722 41.0482 63.0219 40.9805C63.0711 40.9128 63.1136 40.8142 63.149 40.6838C63.1849 40.5537 63.2208 40.3839 63.2575 40.1748C63.3003 39.9287 63.3376 39.6801 63.3691 39.4289C63.4 39.1777 63.4268 38.9256 63.4498 38.6723C63.4721 38.419 63.4909 38.1666 63.5061 37.9155C63.5213 37.6642 63.5337 37.4178 63.5445 37.1759H66.5388V41.605H65.964V37.6957H64.0905C64.0776 37.8843 64.0643 38.0849 64.0505 38.297C64.0361 38.5091 64.0184 38.7303 63.9969 38.9599C63.9756 39.1894 63.9497 39.4257 63.9196 39.6688C63.8892 39.9119 63.8513 40.1594 63.8063 40.4119C63.7699 40.6146 63.726 40.8004 63.6754 40.9683C63.6249 41.1366 63.555 41.2774 63.4658 41.3915C63.3763 41.5053 63.2589 41.582 63.1136 41.6222C62.9686 41.6619 62.7816 41.6564 62.5532 41.605Z" fill="white"/>
      <path d="M71.2444 41.0852H72.4881C72.5287 41.0852 72.576 41.0832 72.6287 41.0792C72.6812 41.0749 72.7315 41.068 72.7787 41.0576C72.927 41.0247 73.048 40.9648 73.1402 40.8775C73.233 40.7904 73.3013 40.6881 73.3454 40.57C73.3899 40.4521 73.4117 40.3317 73.4117 40.2085C73.4117 40.0856 73.3899 39.9652 73.3454 39.8473C73.3013 39.7294 73.233 39.6269 73.1402 39.5399C73.048 39.4526 72.927 39.3926 72.7787 39.3598C72.7315 39.3493 72.6812 39.3423 72.6287 39.3382C72.576 39.334 72.5287 39.3322 72.4881 39.3322H71.2444V41.0852ZM70.6699 41.605V37.1759H71.2444V38.8124H72.5075C72.5525 38.8124 72.6063 38.8137 72.669 38.8168C72.7315 38.8198 72.7917 38.8264 72.8497 38.8369C73.0996 38.8737 73.3101 38.9557 73.4813 39.0827C73.6523 39.2101 73.7813 39.3703 73.8688 39.5642C73.9561 39.7581 73.9995 39.973 73.9995 40.2085C73.9995 40.4425 73.9564 40.656 73.8705 40.8501C73.784 41.0438 73.6556 41.2047 73.4844 41.3329C73.3131 41.4611 73.1018 41.5434 72.8497 41.5804C72.7917 41.5887 72.7315 41.5948 72.669 41.5989C72.6063 41.6031 72.5525 41.605 72.5075 41.605H70.6699Z" fill="white"/>
      <path d="M77.9395 41.605V37.1759H78.5142V39.1288H80.9624V37.1759H81.5372V41.605H80.9624V39.6487H78.5142V41.605H77.9395Z" fill="white"/>
      <path d="M86.0977 40.5684V40.055H88.5133V40.5684H86.0977ZM85.3486 41.605L86.9053 37.1759H87.7063L89.2629 41.605H88.6652L87.2085 37.4957H87.3895L85.9458 41.605H85.3486Z" fill="white"/>
      <path d="M95.7311 39.4487V37.6957H94.4877C94.449 37.6957 94.4035 37.6976 94.3504 37.7018C94.2977 37.7059 94.2466 37.7131 94.1974 37.7234C94.0485 37.7561 93.9281 37.8161 93.8353 37.9034C93.7425 37.9904 93.6746 38.0931 93.6301 38.2108C93.5862 38.329 93.5638 38.4491 93.5638 38.5723C93.5638 38.6952 93.5862 38.8159 93.6301 38.9335C93.6746 39.0516 93.7425 39.154 93.8353 39.2413C93.9281 39.3285 94.0485 39.3882 94.1974 39.4213C94.2466 39.4316 94.2977 39.4388 94.3504 39.4427C94.4035 39.4468 94.449 39.4487 94.4877 39.4487H95.7311ZM96.3059 41.605H95.7311V39.9688H94.3004L94.0809 39.9348C93.7193 39.8715 93.4448 39.7145 93.2575 39.4642C93.0697 39.2139 92.9761 38.9167 92.9761 38.5723C92.9761 38.3384 93.02 38.1249 93.107 37.931C93.1943 37.7372 93.323 37.5764 93.4931 37.4479C93.663 37.3197 93.8743 37.2375 94.1261 37.2004C94.1861 37.1903 94.2471 37.1834 94.3084 37.1806C94.3698 37.1772 94.4231 37.1759 94.4684 37.1759H96.3059V41.605ZM93.5384 41.605H92.8794L93.887 39.6366L94.4554 39.8028L93.5384 41.605Z" fill="white"/>
      <path d="M104.961 41.605V37.1759H105.536V39.2551L107.571 37.1759H108.294L106.182 39.3258L108.459 41.605H107.716L105.536 39.4395V41.605H104.961Z" fill="white"/>
      <path d="M113.827 41.1744C114.173 41.1766 114.462 41.1024 114.692 40.9515C114.923 40.8007 115.096 40.5911 115.213 40.3223C115.329 40.0539 115.387 39.7432 115.387 39.3905C115.387 39.0378 115.329 38.7276 115.213 38.4599C115.096 38.1926 114.923 37.9838 114.692 37.8341C114.462 37.6844 114.173 37.6087 113.827 37.6065C113.48 37.6046 113.192 37.6783 112.963 37.8277C112.734 37.9777 112.561 38.1873 112.445 38.4569C112.328 38.7267 112.269 39.0378 112.267 39.3905C112.265 39.7432 112.322 40.0528 112.438 40.3193C112.554 40.5858 112.728 40.7943 112.96 40.9452C113.191 41.096 113.48 41.1725 113.827 41.1744ZM113.827 41.6973C113.364 41.6973 112.971 41.6 112.648 41.405C112.325 41.2104 112.079 40.9397 111.91 40.593C111.741 40.2467 111.657 39.8457 111.657 39.3905C111.657 38.9353 111.741 38.5343 111.91 38.1878C112.079 37.8413 112.325 37.5708 112.648 37.3759C112.971 37.1809 113.364 37.0837 113.827 37.0837C114.292 37.0837 114.686 37.1809 115.009 37.3759C115.332 37.5708 115.577 37.8413 115.745 38.1878C115.913 38.5343 115.997 38.9353 115.997 39.3905C115.997 39.8457 115.913 40.2467 115.745 40.593C115.577 40.9397 115.332 41.2104 115.009 41.405C114.686 41.6 114.292 41.6973 113.827 41.6973Z" fill="white"/>
      <path d="M119.873 41.605V37.1759H120.396L122.153 40.7037L123.901 37.1759H124.43V41.602H123.884V38.3784L122.305 41.605H121.998L120.419 38.3784V41.605H119.873Z" fill="white"/>
      <path d="M128.564 41.605V37.1759H132.194V41.605H131.619V37.6957H129.139V41.605H128.564Z" fill="white"/>
      <path d="M136.754 40.5684V40.055H139.17V40.5684H136.754ZM136.005 41.605L137.562 37.1759H138.362L139.919 41.605H139.321L137.865 37.4957H138.046L136.602 41.605H136.005Z" fill="white"/>
      <path d="M143.73 41.605V37.1759H144.305V39.1288H146.753V37.1759H147.328V41.605H146.753V39.6487H144.305V41.605H143.73Z" fill="white"/>
      <path d="M155.05 41.605H154.469V38.1417L152.043 41.605H151.462V37.1759H152.043V40.6361L154.469 37.1759H155.05V41.605Z" fill="white"/>
      <path d="M161.842 39.4487V37.6957H160.599C160.56 37.6957 160.514 37.6976 160.462 37.7018C160.409 37.7059 160.358 37.7131 160.308 37.7234C160.159 37.7561 160.039 37.8161 159.947 37.9034C159.854 37.9904 159.785 38.0931 159.741 38.2108C159.697 38.329 159.675 38.4491 159.675 38.5723C159.675 38.6952 159.697 38.8159 159.741 38.9335C159.785 39.0516 159.854 39.154 159.947 39.2413C160.039 39.3285 160.159 39.3882 160.308 39.4213C160.358 39.4316 160.409 39.4388 160.462 39.4427C160.514 39.4468 160.56 39.4487 160.599 39.4487H161.842ZM162.417 41.605H161.842V39.9688H160.411L160.192 39.9348C159.83 39.8715 159.556 39.7145 159.368 39.4642C159.181 39.2139 159.087 38.9167 159.087 38.5723C159.087 38.3384 159.131 38.1249 159.218 37.931C159.305 37.7372 159.434 37.5764 159.604 37.4479C159.774 37.3197 159.985 37.2375 160.237 37.2004C160.297 37.1903 160.358 37.1834 160.419 37.1806C160.481 37.1772 160.534 37.1759 160.579 37.1759H162.417V41.605ZM159.649 41.605H158.991L159.998 39.6366L160.566 39.8028L159.649 41.605Z" fill="white"/>
      <path d="M54.0085 15.6195H39.9522V11.9618H53.2771V7.5479H39.9522V4.66275H54.0085V-1.90735e-05H33.5737V20.14H54.0085V15.6195Z" fill="white"/>
      <path d="M63.8928 4.54674H69.393C73.057 4.54674 74.0604 5.08726 74.0604 7.06262C74.0604 8.92254 72.8291 9.51968 68.9933 9.51968H63.8928V4.54674ZM63.8152 14.0662H71.0955C76.3581 14.0662 79.6277 11.3509 79.6277 6.97977C79.6277 2.6095 76.4379 -1.90735e-05 71.0955 -1.90735e-05H57.6143V20.14H63.8152V14.0662Z" fill="white"/>
      <path d="M90.0419 5.90453L93.1151 12.1319H87.0322L90.0419 5.90453ZM83.5816 20.14L85.5548 16.0377H94.7209L96.7245 20.14H103.814L93.3488 -1.90735e-05H87.537L76.6626 20.14H83.5816Z" fill="white"/>
      <path d="M152.012 7.15874V20.14H157.894V-1.90735e-05H150.978L139.327 13.205V-1.90735e-05H133.694V20.14H140.936L152.012 7.15874Z" fill="white"/>
      <path d="M160.241 3.8147e-06V4.90361H167.872V44.9644H6.04345V8.04839L12.2586 20.14H16.6683L23.1631 8.1713V20.14H29.3291V3.8147e-06H21.5642L14.5479 13.3392L7.70676 3.8147e-06H0V50H2.89272H6.04345H167.872H171.968H174.108V4.90361H181.739V3.8147e-06H160.241Z" fill="white"/>
      <path d="M107.129 20.2243C112.053 20.2243 114.234 17.8142 114.234 11.9881V4.70253H123.279V20.14H129.586V-1.90735e-06H108.069V10.4963C108.069 15.1428 107.377 15.5571 105.399 15.5571C105.327 15.5571 105.27 15.5527 104.847 15.551V20.2138C105.782 20.2654 106.421 20.2243 107.129 20.2243Z" fill="white"/>
    </g>
    <defs>
      <clipPath id="clip0_103_2397">
        <rect width="181.738" height="50" fill="white"/>
      </clipPath>
    </defs>
  </symbol>

  <!-- Burger-menu -->
  <symbol id="burger-menu" xmlns="http://www.w3.org/2000/svg" width="50" height="50" viewBox="0 0 50 50" fill="none">
    <path d="M0 7.5H50V12.5H0V7.5ZM0 22.5H50V27.5H0V22.5ZM0 37.5H50V42.5H0V37.5Z" fill="white"/>
  </symbol>

  <!-- FAQ -->
  <svg id="Faq" xmlns="http://www.w3.org/2000/svg" width="50" height="50" viewBox="0 0 50 50" fill="none">
    <path d="M25 50C11.1925 50 0 38.8075 0 25C0 11.1925 11.1925 0 25 0C38.8075 0 50 11.1925 50 25C50 38.8075 38.8075 50 25 50ZM25 45C30.3043 45 35.3914 42.8929 39.1421 39.1421C42.8929 35.3914 45 30.3043 45 25C45 19.6957 42.8929 14.6086 39.1421 10.8579C35.3914 7.10714 30.3043 5 25 5C19.6957 5 14.6086 7.10714 10.8579 10.8579C7.10714 14.6086 5 19.6957 5 25C5 30.3043 7.10714 35.3914 10.8579 39.1421C14.6086 42.8929 19.6957 45 25 45ZM22.5 32.5H27.5V37.5H22.5V32.5ZM27.5 28.3875V30H22.5V26.25C22.5 25.587 22.7634 24.9511 23.2322 24.4822C23.7011 24.0134 24.337 23.75 25 23.75C25.7102 23.75 26.4058 23.5482 27.0058 23.1683C27.6058 22.7884 28.0857 22.2459 28.3894 21.604C28.6932 20.962 28.8084 20.247 28.7217 19.5421C28.635 18.8372 28.3499 18.1715 27.8996 17.6223C27.4493 17.0731 26.8523 16.6631 26.1781 16.4399C25.5038 16.2168 24.7801 16.1897 24.0911 16.3618C23.402 16.5339 22.776 16.8981 22.2859 17.412C21.7958 17.926 21.4617 18.5686 21.3225 19.265L16.4175 18.2825C16.7216 16.7627 17.4238 15.3509 18.4523 14.1915C19.4808 13.032 20.7988 12.1665 22.2715 11.6833C23.7442 11.2001 25.3187 11.1167 26.8342 11.4415C28.3497 11.7664 29.7518 12.4878 30.897 13.5321C32.0423 14.5763 32.8898 15.906 33.3528 17.3852C33.8158 18.8643 33.8777 20.4399 33.5322 21.9508C33.1867 23.4617 32.4461 24.8537 31.3863 25.9847C30.3265 27.1156 28.9853 27.9448 27.5 28.3875Z" fill="white"/>
  </svg>

</svg>